# xmcd CD database file
#
# Track frame offsets:
#	150
#	29225
#	57428
#	86749
#	111468
#	136271
#	162715
#	192498
#	222468
#	250112
#	276467
#
# Disc length: 3959 seconds
#
# Revision: 1
# Processed by: cddbd v1.5.1PL0 Copyright (c) Steve Scherf et al.
# Submitted via: CDex 1.40Beta9
#
DISCID=b80f750b
DTITLE=John Irving - The Fourth Hand
DYEAR=2001
DGENRE=General Books
TTITLE0=Fourth Hand 7a
TTITLE1=Fourth Hand 7b
TTITLE2=Fourth Hand 7c
TTITLE3=Fourth Hand 7d
TTITLE4=Fourth Hand 7e
TTITLE5=Fourth Hand 7f
TTITLE6=Fourth Hand 7g
TTITLE7=Fourth Hand 7h
TTITLE8=Fourth Hand 7i
TTITLE9=Fourth Hand 7j
TTITLE10=Fourth Hand 7k
EXTD=YEAR: 2001
EXTT0=
EXTT1=
EXTT2=
EXTT3=
EXTT4=
EXTT5=
EXTT6=
EXTT7=
EXTT8=
EXTT9=
EXTT10=
PLAYORDER=
